<?xml version="1.0" standalone="no"?>
<!DOCTYPE svg PUBLIC "-//W3C//DTD SVG 20010904//EN"
 "http://www.w3.org/TR/2001/REC-SVG-20010904/DTD/svg10.dtd">
<svg xmlns="http://www.w3.org/2000/svg" version="1.0" width="1006.000000pt" height="1006.000000pt" viewBox="0 0 1006.000000 1006.000000" preserveAspectRatio="xMidYMid meet"><script id="tinyhippos-injected"/>
<metadata>
Created by potrace 1.12, written by Peter Selinger 2001-2015
</metadata>
<g transform="translate(0.000000,1006.000000) scale(0.100000,-0.100000)" fill="#a90329" stroke="none">
<path d="M0 5030 l0 -5030 5030 0 5030 0 0 5030 0 5030 -5030 0 -5030 0 0 -5030z m5037 4026 c309 -107 513 -349 553 -656 14 -109 12 -400 -5 -585 -21 -249 -68 -571 -100 -690 -7 -27 -21 -84 -30 -125 -53 -240 -166 -574 -274 -813 -17 -38 -31 -73 -31 -78 0 -5 -15 -32 -34 -62 -93 -145 -132 -295 -123 -467 9 -167 56 -298 152 -428 25 -34 45 -64 45 -67 0 -3 -10 -5 -23 -5 -30 0 -139 -40 -206 -76 -68 -36 -187 -151 -235 -226 -84 -133 -126 -288 -126 -468 0 -168 35 -299 116 -431 43 -72 136 -174 194 -214 l41 -28 -65 -59 c-159 -143 -252 -330 -271 -543 -24 -258 112 -554 321 -700 126 -88 226 -128 362 -146 48 -6 88 -13 90 -14 2 -2 -13 -25 -34 -52 -47 -61 -109 -189 -131 -273 -27 -100 -24 -301 5 -403 25 -87 62 -165 116 -246 20 -29 36 -55 36 -57 0 -2 -456 -4 -1013 -4 -1129 0 -1142 1 -1347 65 -204 65 -391 167 -548 298 -290 244 -475 549 -560 927 l-26 115 -4 1029 c-3 1003 -2 1032 18 1150 54 313 164 554 362 792 161 193 399 367 621 454 408 160 687 448 887 916 157 365 249 837 255 1309 3 178 7 222 25 290 69 254 255 463 492 555 106 41 163 50 303 45 95 -3 135 -9 192 -29z m2251 -2938 c170 -61 274 -166 336 -336 47 -130 31 -288 -41 -418 -61 -111 -199 -215 -328 -249 -88 -22 -1502 -23 -1589 0 -90 24 -162 62 -226 121 -70 65 -115 132 -146 220 -33 90 -34 246 -2 331 24 65 77 153 117 197 62 68 203 140 306 156 28 4 376 7 775 6 l725 -2 73 -26z m560 -1308 c70 -17 172 -72 231 -125 230 -210 235 -548 9 -760 -73 -69 -130 -103 -217 -129 -49 -14 -184 -16 -1306 -16 -1381 0 -1292 -4 -1420 63 -74 40 -161 124 -203 199 -48 84 -76 205 -69 298 20 242 133 406 322 466 51 16 2584 20 2653 4z m34 -1329 c150 -43 264 -138 332 -274 152 -309 -29 -671 -372 -742 -63 -13 -242 -15 -1262 -15 -1309 0 -1269 -2 -1400 62 -81 39 -196 151 -233 229 -147 304 12 654 339 744 40 11 284 13 1289 14 1194 1 1243 0 1307 -18z m-923 -1316 c305 -72 483 -389 382 -680 -56 -159 -210 -302 -359 -334 -83 -17 -1061 -15 -1128 3 -163 43 -303 184 -354 354 -19 63 -22 89 -17 175 7 145 50 242 151 343 68 68 162 119 254 139 91 20 986 20 1071 0z"/>
</g>
</svg>