<?xml version="1.0" standalone="no"?>
<!DOCTYPE svg PUBLIC "-//W3C//DTD SVG 20010904//EN"
 "http://www.w3.org/TR/2001/REC-SVG-20010904/DTD/svg10.dtd">
<svg version="1.0" xmlns="http://www.w3.org/2000/svg"
 width="300.000000pt" height="285.000000pt" viewBox="0 0 300.000000 285.000000"
 preserveAspectRatio="xMidYMid meet">
<metadata>
Created by potrace 1.13, written by Peter Selinger 2001-2015
</metadata>
<g transform="translate(0.000000,285.000000) scale(0.100000,-0.100000)"
fill="#8f0222" stroke="none">
<path d="M1575 2685 c-173 -27 -355 -146 -453 -298 -48 -72 -89 -167 -98 -226
-4 -23 -7 -41 -8 -41 -1 0 -25 22 -52 48 -130 125 -312 172 -485 124 -211 -59
-359 -254 -359 -472 1 -138 50 -252 152 -353 60 -60 69 -72 66 -100 l-3 -32
-83 -3 -82 -3 0 -524 0 -525 935 0 935 0 0 105 c0 58 2 105 5 105 3 0 167 -81
365 -180 l360 -180 0 675 0 675 -267 -133 c-148 -74 -311 -155 -363 -180 l-95
-47 -3 105 -3 105 -64 0 c-88 0 -85 18 11 64 146 69 253 175 324 320 92 188
91 423 -3 603 -142 274 -424 415 -732 368z m-51 -289 c128 -97 71 -291 -89
-304 -180 -15 -255 225 -100 316 56 32 138 27 189 -12z m526 14 c61 -31 85
-73 85 -150 0 -52 -5 -72 -23 -98 -81 -113 -266 -85 -307 48 -45 142 110 269
245 200z m-1576 -305 c84 -40 88 -168 6 -210 -101 -52 -212 36 -178 141 24 71
102 102 172 69z m404 -5 c46 -28 68 -82 53 -131 -41 -135 -241 -109 -241 31 0
93 106 150 188 100z m619 -196 c111 -53 125 -215 25 -292 -30 -23 -45 -27
-101 -27 -76 0 -114 21 -151 81 -39 61 -26 158 26 206 55 49 137 62 201 32z
m553 -4 c124 -63 115 -256 -14 -305 -95 -37 -191 4 -230 97 -22 54 -17 99 17
149 52 77 144 101 227 59z m-1552 -178 c57 -53 55 -130 -4 -181 -64 -56 -161
-30 -193 52 -12 33 -12 42 3 80 20 52 56 76 117 77 38 0 53 -6 77 -28z m398
-6 c28 -28 34 -42 34 -75 0 -103 -84 -158 -174 -116 -41 20 -66 63 -66 115 0
34 6 48 34 76 30 30 40 34 86 34 46 0 56 -4 86 -34z m219 -76 c8 -16 43 -59
76 -95 l61 -65 -136 0 -136 0 44 68 c25 37 48 79 52 95 8 35 20 34 39 -3z"/>
</g>
</svg>
