<?xml version="1.0" standalone="no"?>
<!DOCTYPE svg PUBLIC "-//W3C//DTD SVG 20010904//EN"
 "http://www.w3.org/TR/2001/REC-SVG-20010904/DTD/svg10.dtd">
<svg version="1.0" xmlns="http://www.w3.org/2000/svg"
 width="544.000000pt" height="387.000000pt" viewBox="0 0 544.000000 387.000000"
 preserveAspectRatio="xMidYMid meet">
<metadata>
Created by potrace 1.13, written by Peter Selinger 2001-2015
</metadata>
<g transform="translate(0.000000,387.000000) scale(0.100000,-0.100000)"
fill="#8f0222" stroke="none">
<path d="M1890 3605 c-216 -30 -407 -88 -605 -186 -432 -212 -701 -556 -746
-952 -15 -137 -1 -263 47 -406 61 -185 144 -313 307 -474 l99 -97 -136 -382
c-75 -210 -134 -383 -132 -386 3 -2 125 65 273 150 148 84 343 191 433 237
l165 83 115 -25 c116 -26 272 -48 265 -38 -2 4 -24 37 -49 75 -26 38 -63 104
-83 146 l-36 78 -83 21 c-46 12 -101 21 -123 21 -50 0 -133 -31 -268 -99 -57
-28 -103 -49 -103 -47 0 3 20 62 45 132 25 69 45 132 45 139 0 6 -42 41 -92
77 -426 300 -536 740 -281 1118 405 601 1498 743 2168 283 l80 -55 191 -2 192
-1 -19 26 c-34 48 -205 204 -280 256 -227 156 -530 269 -826 308 -139 18 -430
18 -563 0z"/>
<path d="M3160 2869 c-368 -42 -721 -195 -949 -414 -104 -100 -167 -181 -225
-294 -73 -142 -91 -219 -91 -396 0 -127 4 -162 23 -229 134 -463 640 -811
1272 -877 215 -22 481 -2 698 53 l83 21 67 -28 c78 -32 268 -130 431 -222 62
-35 115 -62 117 -60 3 2 -37 120 -87 262 -50 141 -87 260 -83 264 5 4 35 26
66 50 74 55 203 191 251 263 52 79 113 210 134 288 14 49 18 103 18 220 0 135
-3 165 -23 230 -92 295 -313 532 -647 696 -198 97 -378 148 -607 173 -112 13
-338 12 -448 0z m352 -892 c13 -3 65 -11 116 -18 l94 -12 -83 -83 -83 -83 17
-108 c10 -59 17 -112 17 -116 0 -5 -46 16 -103 46 l-103 55 -102 -54 c-78 -42
-102 -51 -102 -39 0 9 7 61 17 116 l16 100 -82 83 -83 83 54 7 c29 4 81 12
116 18 l63 10 52 104 52 104 52 -104 c39 -78 58 -105 75 -109z m-702 -101 c36
-4 67 -10 69 -12 3 -3 -17 -27 -43 -53 l-49 -50 7 -53 c4 -29 10 -63 13 -76 5
-23 4 -23 -63 11 l-69 35 -67 -34 -68 -34 6 27 c24 132 26 117 -27 169 -27 27
-49 51 -49 55 0 4 30 11 68 15 l67 9 35 67 35 67 35 -67 35 -67 65 -9z m1420
0 c36 -4 67 -10 69 -12 3 -3 -18 -28 -46 -57 l-52 -52 10 -50 c5 -27 11 -60
14 -73 5 -22 3 -21 -64 12 l-69 35 -67 -36 -68 -36 6 30 c3 17 9 52 12 79 6
49 6 49 -45 99 l-51 50 73 10 73 10 35 67 35 67 35 -67 35 -67 65 -9z"/>
</g>
</svg>
