<?xml version="1.0" standalone="no"?>
<!DOCTYPE svg PUBLIC "-//W3C//DTD SVG 20010904//EN"
 "http://www.w3.org/TR/2001/REC-SVG-20010904/DTD/svg10.dtd">
<svg version="1.0" xmlns="http://www.w3.org/2000/svg"
 width="512.000000pt" height="512.000000pt" viewBox="0 0 512.000000 512.000000"
 preserveAspectRatio="xMidYMid meet">
<metadata>
Created by potrace 1.13, written by Peter Selinger 2001-2015
</metadata>
<g transform="translate(0.000000,512.000000) scale(0.100000,-0.100000)"
fill="#a90329" stroke="none">
<path d="M2385 5064 c-535 -55 -936 -206 -1335 -502 -149 -111 -381 -343 -492
-492 -258 -347 -414 -718 -480 -1145 -31 -199 -31 -531 0 -730 86 -550 321
-1015 711 -1406 391 -390 856 -625 1406 -711 199 -31 531 -31 730 0 549 86
1016 321 1406 711 390 390 625 857 711 1406 17 113 22 184 22 365 0 181 -5
252 -22 365 -86 550 -321 1015 -711 1406 -390 389 -863 629 -1403 710 -127 19
-449 33 -543 23z m610 -1859 c231 -179 428 -335 438 -346 16 -20 17 -64 17
-619 0 -589 0 -598 -21 -624 l-20 -26 -269 0 c-264 0 -270 0 -290 22 -19 21
-20 33 -20 385 l0 362 -232 3 c-128 2 -250 2 -270 0 l-38 -3 0 -363 c0 -351
-1 -363 -20 -384 -20 -22 -26 -22 -290 -22 l-269 0 -20 26 c-21 26 -21 35 -21
620 0 326 3 600 6 609 6 14 743 612 824 668 13 9 36 17 50 17 18 0 149 -96
445 -325z"/>
</g>
</svg>
