<?xml version="1.0" standalone="no"?>
<!DOCTYPE svg PUBLIC "-//W3C//DTD SVG 20010904//EN"
 "http://www.w3.org/TR/2001/REC-SVG-20010904/DTD/svg10.dtd">
<svg version="1.0" xmlns="http://www.w3.org/2000/svg"
 width="512.000000pt" height="512.000000pt" viewBox="0 0 512.000000 512.000000"
 preserveAspectRatio="xMidYMid meet">
<metadata>
Created by potrace 1.13, written by Peter Selinger 2001-2015
</metadata>
<g transform="translate(0.000000,512.000000) scale(0.100000,-0.100000)"
fill="#8f0222" stroke="none">
<path d="M1372 4030 c-107 -28 -187 -75 -268 -155 -84 -83 -134 -168 -168
-287 -74 -258 -22 -563 137 -797 134 -199 142 -217 116 -275 -25 -53 -150
-121 -364 -196 -198 -70 -327 -143 -424 -240 -92 -92 -131 -190 -131 -327 l0
-73 38 -1 c156 -2 674 0 676 2 2 2 20 31 41 64 53 85 187 219 270 270 97 61
248 130 454 209 96 37 182 71 192 77 17 9 15 15 -26 70 -175 238 -265 514
-265 815 0 260 75 494 212 664 l51 64 -28 22 c-124 99 -342 139 -513 94z"/>
<path d="M3485 4040 c-71 -14 -158 -49 -212 -85 -29 -19 -53 -37 -53 -40 0 -3
20 -30 44 -59 93 -114 172 -297 201 -463 20 -111 19 -305 -1 -424 -31 -188
-117 -395 -236 -572 l-59 -88 63 -28 c35 -16 128 -52 208 -81 333 -121 562
-279 672 -466 l33 -56 310 0 c171 1 331 1 358 1 l47 1 0 73 c0 138 -38 232
-132 326 -103 103 -225 170 -463 256 -158 57 -277 117 -310 157 -18 21 -25 41
-25 72 0 45 2 49 101 186 315 437 239 1041 -156 1236 -114 56 -270 78 -390 54z"/>
<path d="M2444 3980 c-357 -64 -594 -382 -594 -795 0 -252 81 -486 252 -724
68 -95 82 -121 85 -160 9 -92 -66 -150 -316 -247 -273 -106 -357 -144 -451
-205 -121 -78 -199 -160 -247 -256 -36 -72 -37 -80 -41 -199 l-4 -124 1436 0
1436 0 0 99 c0 208 -81 343 -288 478 -102 67 -184 106 -378 176 -194 70 -298
122 -351 173 -40 37 -43 45 -43 92 0 44 6 59 45 114 163 230 199 299 249 471
91 315 40 649 -133 863 -87 108 -220 193 -356 229 -73 20 -231 27 -301 15z"/>
</g>
</svg>
